<svg xmlns="http://www.w3.org/2000/svg" xmlns:xlink="http://www.w3.org/1999/xlink" width="23.369" height="23.369" viewBox="0 0 23.369 23.369"><defs><path id="a" d="M0 0h23.369v23.369H0z"/></defs><clipPath id="b"><use xlink:href="#a" overflow="visible"/></clipPath><path clip-path="url(#b)" fill="#BDDDE1" d="M1.966 0S0 0 0 1.966v19.438s0 1.966 1.966 1.966h19.437s1.966 0 1.966-1.966V1.966S23.369 0 21.403 0H1.966z"/><defs><path id="c" d="M1.967 0S0 0 0 1.966v19.436s0 1.967 1.967 1.967h19.437s1.966 0 1.966-1.967V1.966S23.37 0 21.404 0H1.967z"/></defs><clipPath id="d"><use xlink:href="#c" overflow="visible"/></clipPath><path clip-path="url(#d)" fill="#FFF" d="M13.744 22.799V15.05h2.601l.39-3.02h-2.99v-1.928c0-.874.243-1.47 1.497-1.47h1.599V5.931a21.318 21.318 0 0 0-2.33-.119c-2.306 0-3.884 1.407-3.884 3.991v2.227H8.018v3.02h2.608v7.749h3.118z"/></svg>