<svg xmlns="http://www.w3.org/2000/svg" xmlns:xlink="http://www.w3.org/1999/xlink" width="22.99" height="22.991" viewBox="0 0 22.99 22.991"><defs><path id="a" d="M0 0h22.99v22.99H0z"/></defs><clipPath id="b"><use xlink:href="#a" overflow="visible"/></clipPath><path clip-path="url(#b)" fill="#BDDDE1" d="M2.426 0S0 0 0 2.426v18.139s0 2.425 2.426 2.425h18.139s2.426 0 2.426-2.425V2.426S22.991 0 20.565 0H2.426z"/><path clip-path="url(#b)" fill="#BDDDE1" d="M11.704 18.447a5.943 5.943 0 1 0 0-11.887 5.943 5.943 0 0 0 0 11.887"/><circle clip-path="url(#b)" fill="none" stroke="#FFF" stroke-width="2" cx="11.704" cy="12.504" r="5.943"/><path clip-path="url(#b)" fill="#FFF" d="M19.069 4.868a1.07 1.07 0 1 0 0-2.138 1.07 1.07 0 0 0 0 2.138"/><circle clip-path="url(#b)" fill="none" stroke="#FFF" stroke-width="1.284" cx="19.069" cy="3.799" r="1.07"/><defs><path id="c" d="M0 0h22.99v22.99H0z"/></defs><clipPath id="d"><use xlink:href="#c" overflow="visible"/></clipPath><path clip-path="url(#d)" fill="#BDDDE1" d="M2.426 0S0 0 0 2.426v18.139s0 2.425 2.426 2.425h18.139s2.426 0 2.426-2.425V2.426S22.991 0 20.565 0H2.426z"/><path clip-path="url(#d)" fill="#BDDDE1" d="M11.704 18.447a5.943 5.943 0 1 0 0-11.887 5.943 5.943 0 0 0 0 11.887"/><circle clip-path="url(#d)" fill="none" stroke="#FFF" stroke-width="2" cx="11.704" cy="12.504" r="5.943"/><path clip-path="url(#d)" fill="#FFF" d="M19.069 4.868a1.07 1.07 0 1 0 0-2.138 1.07 1.07 0 0 0 0 2.138"/><circle clip-path="url(#d)" fill="none" stroke="#FFF" stroke-width="1.284" cx="19.069" cy="3.799" r="1.07"/></svg>