<?xml version="1.0" encoding="utf-8"?>
<!-- Generator: Adobe Illustrator 16.0.0, SVG Export Plug-In . SVG Version: 6.00 Build 0)  -->
<!DOCTYPE svg PUBLIC "-//W3C//DTD SVG 1.1//EN" "http://www.w3.org/Graphics/SVG/1.1/DTD/svg11.dtd">
<svg version="1.1" id="Layer_1" xmlns="http://www.w3.org/2000/svg" xmlns:xlink="http://www.w3.org/1999/xlink" x="0px" y="0px"
	 width="23.369px" height="23.369px" viewBox="0 0 23.369 23.369" enable-background="new 0 0 23.369 23.369" xml:space="preserve">
<g>
	<defs>
		<rect id="SVGID_1_" width="23.369" height="23.369"/>
	</defs>
	<clipPath id="SVGID_2_">
		<use xlink:href="#SVGID_1_"  overflow="visible"/>
	</clipPath>
	<path clip-path="url(#SVGID_2_)" fill="#BDDDE1" d="M1.966,0C1.966,0,0,0,0,1.966v19.438c0,0,0,1.966,1.966,1.966h19.437
		c0,0,1.966,0,1.966-1.966V1.966c0,0,0-1.966-1.966-1.966H1.966z"/>
</g>
<g>
	<defs>
		<path id="SVGID_3_" d="M1.967,0C1.967,0,0,0,0,1.966v19.436c0,0,0,1.967,1.967,1.967h19.437c0,0,1.966,0,1.966-1.967V1.966
			c0,0,0-1.966-1.966-1.966H1.967z"/>
	</defs>
	<clipPath id="SVGID_4_">
		<use xlink:href="#SVGID_3_"  overflow="visible"/>
	</clipPath>
	<path clip-path="url(#SVGID_4_)" fill="#FFFFFF" d="M13.744,22.799V15.05h2.601l0.39-3.02h-2.99v-1.928
		c0-0.874,0.243-1.47,1.497-1.47h1.599V5.931c-0.276-0.037-1.226-0.119-2.33-0.119c-2.306,0-3.884,1.407-3.884,3.991v2.227H8.018
		v3.02h2.608v7.749H13.744z"/>
</g>
</svg>
